<mxfile host="app.diagrams.net" agent="Mozilla/5.0 (Macintosh; Intel Mac OS X 10_15_7) AppleWebKit/537.36 (KHTML, like Gecko) Chrome/132.0.0.0 Safari/537.36" version="24.7.10">
  <diagram name="Page-1" id="JSMRB10dfFJBKte4Wvzm">
    <mxGraphModel dx="2106" dy="1933" grid="1" gridSize="10" guides="1" tooltips="1" connect="1" arrows="1" fold="1" page="1" pageScale="1" pageWidth="850" pageHeight="1100" background="#FFFFFF" math="0" shadow="0">
      <root>
        <mxCell id="0" />
        <mxCell id="1" parent="0" />
        <mxCell id="oMEdmUy61UKCNXslntlV-27" value="" style="edgeStyle=orthogonalEdgeStyle;rounded=0;orthogonalLoop=1;jettySize=auto;html=1;" edge="1" parent="1" source="oMEdmUy61UKCNXslntlV-1" target="oMEdmUy61UKCNXslntlV-2">
          <mxGeometry relative="1" as="geometry" />
        </mxCell>
        <mxCell id="oMEdmUy61UKCNXslntlV-36" style="edgeStyle=orthogonalEdgeStyle;rounded=0;orthogonalLoop=1;jettySize=auto;html=1;" edge="1" parent="1" source="oMEdmUy61UKCNXslntlV-1" target="oMEdmUy61UKCNXslntlV-13">
          <mxGeometry relative="1" as="geometry" />
        </mxCell>
        <mxCell id="oMEdmUy61UKCNXslntlV-1" value="order&lt;div&gt;&lt;br&gt;&lt;/div&gt;" style="rounded=0;whiteSpace=wrap;html=1;" vertex="1" parent="1">
          <mxGeometry x="330" y="220" width="120" height="60" as="geometry" />
        </mxCell>
        <mxCell id="oMEdmUy61UKCNXslntlV-28" value="" style="edgeStyle=orthogonalEdgeStyle;rounded=0;orthogonalLoop=1;jettySize=auto;html=1;" edge="1" parent="1" source="oMEdmUy61UKCNXslntlV-2" target="oMEdmUy61UKCNXslntlV-14">
          <mxGeometry relative="1" as="geometry" />
        </mxCell>
        <mxCell id="oMEdmUy61UKCNXslntlV-2" value="payement" style="whiteSpace=wrap;html=1;" vertex="1" parent="1">
          <mxGeometry x="330" y="340" width="120" height="60" as="geometry" />
        </mxCell>
        <mxCell id="oMEdmUy61UKCNXslntlV-24" value="" style="edgeStyle=orthogonalEdgeStyle;rounded=0;orthogonalLoop=1;jettySize=auto;html=1;" edge="1" parent="1" source="oMEdmUy61UKCNXslntlV-4" target="oMEdmUy61UKCNXslntlV-9">
          <mxGeometry relative="1" as="geometry" />
        </mxCell>
        <mxCell id="oMEdmUy61UKCNXslntlV-34" style="edgeStyle=orthogonalEdgeStyle;rounded=0;orthogonalLoop=1;jettySize=auto;html=1;exitX=0;exitY=0.5;exitDx=0;exitDy=0;entryX=0.75;entryY=0;entryDx=0;entryDy=0;" edge="1" parent="1" source="oMEdmUy61UKCNXslntlV-4" target="oMEdmUy61UKCNXslntlV-6">
          <mxGeometry relative="1" as="geometry" />
        </mxCell>
        <mxCell id="oMEdmUy61UKCNXslntlV-4" value="cart&lt;div&gt;&lt;br&gt;&lt;/div&gt;" style="whiteSpace=wrap;html=1;" vertex="1" parent="1">
          <mxGeometry x="210" y="110" width="120" height="60" as="geometry" />
        </mxCell>
        <mxCell id="oMEdmUy61UKCNXslntlV-5" value="address" style="whiteSpace=wrap;html=1;" vertex="1" parent="1">
          <mxGeometry x="260" y="-60" width="120" height="60" as="geometry" />
        </mxCell>
        <mxCell id="oMEdmUy61UKCNXslntlV-30" value="" style="edgeStyle=orthogonalEdgeStyle;rounded=0;orthogonalLoop=1;jettySize=auto;html=1;" edge="1" parent="1" source="oMEdmUy61UKCNXslntlV-6" target="oMEdmUy61UKCNXslntlV-10">
          <mxGeometry relative="1" as="geometry" />
        </mxCell>
        <mxCell id="oMEdmUy61UKCNXslntlV-6" value="product&lt;div&gt;&lt;br&gt;&lt;/div&gt;" style="whiteSpace=wrap;html=1;" vertex="1" parent="1">
          <mxGeometry x="-120" y="120" width="120" height="60" as="geometry" />
        </mxCell>
        <mxCell id="oMEdmUy61UKCNXslntlV-20" value="" style="edgeStyle=orthogonalEdgeStyle;rounded=0;orthogonalLoop=1;jettySize=auto;html=1;" edge="1" parent="1" source="oMEdmUy61UKCNXslntlV-7" target="oMEdmUy61UKCNXslntlV-5">
          <mxGeometry relative="1" as="geometry" />
        </mxCell>
        <mxCell id="oMEdmUy61UKCNXslntlV-22" style="edgeStyle=orthogonalEdgeStyle;rounded=0;orthogonalLoop=1;jettySize=auto;html=1;entryX=0;entryY=0.5;entryDx=0;entryDy=0;" edge="1" parent="1" source="oMEdmUy61UKCNXslntlV-7" target="oMEdmUy61UKCNXslntlV-4">
          <mxGeometry relative="1" as="geometry" />
        </mxCell>
        <mxCell id="oMEdmUy61UKCNXslntlV-37" style="edgeStyle=orthogonalEdgeStyle;rounded=0;orthogonalLoop=1;jettySize=auto;html=1;entryX=0.5;entryY=0;entryDx=0;entryDy=0;" edge="1" parent="1" source="oMEdmUy61UKCNXslntlV-7" target="oMEdmUy61UKCNXslntlV-1">
          <mxGeometry relative="1" as="geometry" />
        </mxCell>
        <mxCell id="oMEdmUy61UKCNXslntlV-7" value="user" style="whiteSpace=wrap;html=1;" vertex="1" parent="1">
          <mxGeometry x="40" y="-10" width="120" height="60" as="geometry" />
        </mxCell>
        <mxCell id="oMEdmUy61UKCNXslntlV-25" value="" style="edgeStyle=orthogonalEdgeStyle;rounded=0;orthogonalLoop=1;jettySize=auto;html=1;" edge="1" parent="1" source="oMEdmUy61UKCNXslntlV-9" target="oMEdmUy61UKCNXslntlV-12">
          <mxGeometry relative="1" as="geometry" />
        </mxCell>
        <mxCell id="oMEdmUy61UKCNXslntlV-26" value="" style="edgeStyle=orthogonalEdgeStyle;rounded=0;orthogonalLoop=1;jettySize=auto;html=1;" edge="1" parent="1" source="oMEdmUy61UKCNXslntlV-9" target="oMEdmUy61UKCNXslntlV-1">
          <mxGeometry relative="1" as="geometry" />
        </mxCell>
        <mxCell id="oMEdmUy61UKCNXslntlV-9" value="order_status" style="whiteSpace=wrap;html=1;" vertex="1" parent="1">
          <mxGeometry x="420" y="110" width="120" height="60" as="geometry" />
        </mxCell>
        <mxCell id="oMEdmUy61UKCNXslntlV-10" value="product_category&lt;div&gt;&lt;br&gt;&lt;/div&gt;" style="rounded=1;whiteSpace=wrap;html=1;" vertex="1" parent="1">
          <mxGeometry x="-280" y="240" width="120" height="60" as="geometry" />
        </mxCell>
        <mxCell id="oMEdmUy61UKCNXslntlV-31" value="" style="edgeStyle=orthogonalEdgeStyle;rounded=0;orthogonalLoop=1;jettySize=auto;html=1;" edge="1" parent="1" source="oMEdmUy61UKCNXslntlV-11" target="oMEdmUy61UKCNXslntlV-10">
          <mxGeometry relative="1" as="geometry" />
        </mxCell>
        <mxCell id="oMEdmUy61UKCNXslntlV-32" value="" style="edgeStyle=orthogonalEdgeStyle;rounded=0;orthogonalLoop=1;jettySize=auto;html=1;" edge="1" parent="1" source="oMEdmUy61UKCNXslntlV-11" target="oMEdmUy61UKCNXslntlV-16">
          <mxGeometry relative="1" as="geometry" />
        </mxCell>
        <mxCell id="oMEdmUy61UKCNXslntlV-11" value="stock" style="whiteSpace=wrap;html=1;" vertex="1" parent="1">
          <mxGeometry x="-280" y="340" width="120" height="60" as="geometry" />
        </mxCell>
        <mxCell id="oMEdmUy61UKCNXslntlV-12" value="invoice" style="whiteSpace=wrap;html=1;" vertex="1" parent="1">
          <mxGeometry x="610" y="110" width="120" height="60" as="geometry" />
        </mxCell>
        <mxCell id="oMEdmUy61UKCNXslntlV-13" value="log_order" style="whiteSpace=wrap;html=1;" vertex="1" parent="1">
          <mxGeometry x="610" y="220" width="120" height="60" as="geometry" />
        </mxCell>
        <mxCell id="oMEdmUy61UKCNXslntlV-14" value="log_payment" style="whiteSpace=wrap;html=1;" vertex="1" parent="1">
          <mxGeometry x="120" y="340" width="120" height="60" as="geometry" />
        </mxCell>
        <mxCell id="oMEdmUy61UKCNXslntlV-23" style="edgeStyle=orthogonalEdgeStyle;rounded=0;orthogonalLoop=1;jettySize=auto;html=1;" edge="1" parent="1" source="oMEdmUy61UKCNXslntlV-15" target="oMEdmUy61UKCNXslntlV-7">
          <mxGeometry relative="1" as="geometry" />
        </mxCell>
        <mxCell id="oMEdmUy61UKCNXslntlV-15" value="log_user_history&lt;div&gt;&lt;br&gt;&lt;/div&gt;" style="whiteSpace=wrap;html=1;" vertex="1" parent="1">
          <mxGeometry x="40" y="-140" width="120" height="60" as="geometry" />
        </mxCell>
        <mxCell id="oMEdmUy61UKCNXslntlV-16" value="log_product" style="whiteSpace=wrap;html=1;" vertex="1" parent="1">
          <mxGeometry x="-280" y="470" width="120" height="60" as="geometry" />
        </mxCell>
        <mxCell id="oMEdmUy61UKCNXslntlV-29" value="" style="edgeStyle=orthogonalEdgeStyle;rounded=0;orthogonalLoop=1;jettySize=auto;html=1;" edge="1" parent="1" source="oMEdmUy61UKCNXslntlV-17" target="oMEdmUy61UKCNXslntlV-6">
          <mxGeometry relative="1" as="geometry" />
        </mxCell>
        <mxCell id="oMEdmUy61UKCNXslntlV-33" value="" style="edgeStyle=orthogonalEdgeStyle;rounded=0;orthogonalLoop=1;jettySize=auto;html=1;" edge="1" parent="1" source="oMEdmUy61UKCNXslntlV-17" target="oMEdmUy61UKCNXslntlV-1">
          <mxGeometry relative="1" as="geometry" />
        </mxCell>
        <mxCell id="oMEdmUy61UKCNXslntlV-17" value="product_availabilty&lt;div&gt;&lt;br&gt;&lt;/div&gt;" style="whiteSpace=wrap;html=1;" vertex="1" parent="1">
          <mxGeometry x="120" y="220" width="120" height="60" as="geometry" />
        </mxCell>
        <mxCell id="oMEdmUy61UKCNXslntlV-39" value="Exports&lt;div&gt;&lt;br&gt;&lt;/div&gt;" style="whiteSpace=wrap;html=1;" vertex="1" parent="1">
          <mxGeometry x="-280" y="610" width="120" height="60" as="geometry" />
        </mxCell>
        <mxCell id="oMEdmUy61UKCNXslntlV-40" style="edgeStyle=orthogonalEdgeStyle;rounded=0;orthogonalLoop=1;jettySize=auto;html=1;entryX=-0.003;entryY=0.378;entryDx=0;entryDy=0;entryPerimeter=0;" edge="1" parent="1" source="oMEdmUy61UKCNXslntlV-16" target="oMEdmUy61UKCNXslntlV-39">
          <mxGeometry relative="1" as="geometry" />
        </mxCell>
      </root>
    </mxGraphModel>
  </diagram>
</mxfile>
